<svg id="Layer_1" data-name="Layer 1" xmlns="http://www.w3.org/2000/svg" viewBox="0 0 1080 1080"><defs><style>.cls-1{fill:#fff;}.cls-2{fill:#fca311;}.cls-3{fill:none;}</style></defs><path class="cls-1" d="M415.41,511.55,344.75,887.2C203.5,874.15,109.83,768.43,114.14,682.43,119,585.31,250.75,476.09,415.41,511.55Z"/><path class="cls-1" d="M415.61,514.08l-.53-.79-.53-.79-.5-.74.09-.48,14.86-79A409.6,409.6,0,0,0,343.77,423C160.39,422.45,23.64,550.22,17.86,665.5,12,782.87,139.8,927.14,332.56,944.94l.63,0,68.07,3.7s0-.07,0-.11q33.5-178.09,67-356.21ZM498.82,64.54Q464.26,248.27,429.69,432c-.05.25-.09.49-.14.74l1.07,1.58.94,1.39,51.73,76.87c.15-.77.29-1.55.44-2.32Q528.52,272.16,573.31,34c.21-1.1.41-2.19.62-3.29.06-.33.13-.67.19-1Zm563.92-50.33c-.06.34-.13.67-.19,1l1.45-.67v-7ZM810.67,996,988.75,49.32,809.91,994.89Zm53.57,84h3l-2.31-3.43C864.67,1077.71,864.46,1078.86,864.24,1080Zm-69.39-5.44-.44,2.31h0l.45,3.12h3.65l-1.29-1.92Z"/><path class="cls-2" d="M994.82,12c-.06.34-.13.67-.19,1Q894.79,543.68,795,1074.36l-52.66-78.24c.15-.77.29-1.55.44-2.32L920.83,47.11c.06-.34.13-.67.19-1Z"/><path class="cls-3" d="M797.22,1078.08l-.36,1.92"/><path class="cls-3" d="M864.89,1076.57c-.22,1.14-.43,2.29-.65,3.43"/><path class="cls-2" d="M429.69,432A408.74,408.74,0,0,0,343.77,423C161.4,423.38,25.62,550.64,19.86,665.5,14,782.87,141.8,927.14,334.56,944.94l81.05-430.86.44-2.32,14.57-77.43.38-2ZM344.75,887.2C203.5,874.15,109.83,768.43,114.14,682.43c4.3-85.67,107.32-180.76,244.57-177.64l1.74,0,2.53.09,2.14.09c.72,0,1.43.06,2.15.1l1.06.05,2.76.17,2.21.16,2.09.15c1,.08,2,.16,3.05.26l.48.05,1.78.17c2,.19,4,.4,6,.64h.09l1.76.22q2.88.36,5.79.78l2,.29q2.94.44,5.91.95l1.8.31,2.16.39,2,.37q3,.57,6,1.2l1.27.27-.33,1.74Z"/><path class="cls-1" d="M415.41,511.55,344.75,887.2C203.5,874.15,109.83,768.43,114.14,682.43,119,585.31,250.75,476.09,415.41,511.55Z"/><path class="cls-2" d="M470.29,592.35q-33.51,178.15-67,356.32l-2-.11L335.19,945l-.63,0,81.05-430.86.44-2.32.5.74Z"/><polyline class="cls-3" points="798.51 1080 797.22 1078.08 794.85 1074.56"/><path class="cls-1" d="M415.41,511.55,344.75,887.2C203.5,874.15,109.83,768.43,114.14,682.43,119,585.31,250.75,476.09,415.41,511.55Z"/><path class="cls-2" d="M576.12,32.74h0q-45.4,241.42-90.83,482.84l-1.56-2.32-52.18-77.52L500.82,67.54l73.11-33.79Z"/><path class="cls-2" d="M809.91,994.89l-15.06,79.67L470.29,592.35,416.55,512.5l-.5-.74,14.57-77.43.94,1.39,51.73,76.87c.15-.77.29-1.55.44-2.32l1.56,2.32.44.66L777.58,946.86Z"/><polyline class="cls-3" points="809.91 994.89 810.67 996.01 812.23 998.33"/><line class="cls-3" x1="867.2" y1="1080" x2="864.89" y2="1076.57"/><line class="cls-3" x1="576.12" y1="29.74" x2="500.82" y2="64.54"/><polyline class="cls-3" points="988.41 49.48 988.75 49.32 990.94 48.31 1062.55 15.22 1064 14.55 1064.74 14.21 1066 13.63"/></svg>