<svg id="Layer_1" data-name="Layer 1" xmlns="http://www.w3.org/2000/svg" viewBox="0 0 1080 1080"><defs><style>.cls-1{fill:#fff;}.cls-2{fill:#fca311;}.cls-3{fill:none;}</style></defs><path class="cls-1" d="M355.42,504.74a277.64,277.64,0,0,0-91.05,14A277.29,277.29,0,0,1,355.42,504.74Z"/><path class="cls-1" d="M415.41,511.55l-.33,1.74-.53-.79-.5-.74.09-.48Z"/><path class="cls-1" d="M797.22,1078.08l-2.37-3.52-.44,2.31h0l.45,3.12h3.65Zm67.67-1.51c-.22,1.14-.43,2.29-.65,3.43h3Zm-53.15-91.34-1.83,9.66h0l.75,1.11L988.75,49.32Zm251-971c-.06.34-.13.67-.19,1l1.45-.67v-7ZM498.82,64.54Q464.26,248.27,429.69,432c-.05.25-.09.49-.14.74l1.07,1.58.94,1.38h0l51.73,76.87c.15-.77.29-1.55.44-2.32Q528.52,272.16,573.31,34c.21-1.1.41-2.19.62-3.29.06-.33.13-.67.19-1ZM415.61,514.08l-.53-.79L344.75,887.2C203.5,874.15,109.83,768.43,114.14,682.43a130.85,130.85,0,0,1,10.34-43.75c.55-1.32,1.13-2.64,1.72-3.95l.9-2c.62-1.32,1.25-2.62,1.9-3.93s1.33-2.61,2-3.91,1.41-2.59,2.14-3.89,1.49-2.58,2.26-3.86q3.48-5.77,7.47-11.43a208.64,208.64,0,0,1,23-27.17c25.42-25.35,59.06-46.67,98.45-59.78a277.64,277.64,0,0,1,91.05-14c1.09,0,2.19,0,3.29.05l1.66,0,2.61.09,1.07,0,1.46.06,1.36.07.4,0,.83,0,3,.18,2.21.16,2.09.15,3.05.26.48.05,1.78.17c.85.08,1.71.16,2.57.26l3.44.38c2.54.3,5.08.64,7.64,1l1.95.29q3,.44,5.92.95l1.8.31,2.16.39,2,.37q3,.57,6,1.2l14.86-79A409.6,409.6,0,0,0,343.77,423C160.39,422.45,23.64,550.22,17.86,665.5,12,782.87,139.8,927.14,332.56,944.94l.63,0,68.07,3.7s0-.07,0-.11q33.5-178.09,67-356.21Z"/><path class="cls-2" d="M994.82,12c-.06.34-.13.67-.19,1Q894.79,543.68,795,1074.36l-52.66-78.24c.15-.77.29-1.55.44-2.32L920.83,47.11c.06-.34.13-.67.19-1Z"/><path class="cls-3" d="M797.22,1078.08l-.36,1.92"/><path class="cls-3" d="M864.89,1076.57c-.22,1.14-.43,2.29-.65,3.43"/><path class="cls-2" d="M429.69,432A408.74,408.74,0,0,0,343.77,423C161.4,423.38,25.62,550.64,19.86,665.5,14,782.87,141.8,927.14,334.56,944.94l81.05-430.86.44-2.32,14.57-77.43.38-2ZM344.75,887.2C203.5,874.15,109.83,768.43,114.14,682.43a130.85,130.85,0,0,1,10.34-43.75c.55-1.32,1.12-2.64,1.72-3.95l.9-2c.61-1.32,1.25-2.62,1.9-3.93s1.33-2.61,2-3.91,1.41-2.59,2.14-3.89,1.49-2.58,2.26-3.86q3.47-5.77,7.47-11.43a206.44,206.44,0,0,1,23-27.17c25.42-25.35,59.06-46.67,98.45-59.78a277.64,277.64,0,0,1,91.05-14c1.09,0,2.19,0,3.29.05l1.66,0,2.61.09,1.07,0,1.46.06,1.36.07.4,0,.83,0,3,.18,2.21.16,2.09.15c1,.08,2,.16,3.05.26l.48.05,1.78.17c.85.08,1.71.16,2.57.26,1.14.12,2.29.24,3.44.38,2.54.3,5.08.64,7.64,1l1.95.29q3,.44,5.92.95l1.8.31,2.16.39,2,.37q3,.57,6,1.2l1.27.27-.33,1.74Z"/><path class="cls-1" d="M355.42,504.74a277.64,277.64,0,0,0-91.05,14A277.29,277.29,0,0,1,355.42,504.74Z"/><path class="cls-1" d="M415.41,511.55l-.33,1.74-.53-.79-.5-.74.09-.48Z"/><path class="cls-2" d="M470.29,592.35q-33.51,178.15-67,356.32l-2-.11L335.19,945l-.63,0,81.05-430.86.44-2.32.5.74Z"/><polyline class="cls-3" points="798.51 1080 797.22 1078.08 794.85 1074.56"/><path class="cls-1" d="M355.42,504.74a277.64,277.64,0,0,0-91.05,14A277.29,277.29,0,0,1,355.42,504.74Z"/><path class="cls-1" d="M415.41,511.55l-.33,1.74-.53-.79-.5-.74.09-.48Z"/><path class="cls-2" d="M576.12,32.74h0q-45.4,241.42-90.83,482.84l-1.56-2.32-52.18-77.52L500.82,67.54l73.11-33.79Z"/><path class="cls-2" d="M809.91,994.89l-15.06,79.67L470.29,592.35,416.55,512.5l-.5-.74,14.57-77.43.94,1.39,51.73,76.87c.15-.77.29-1.55.44-2.32l1.56,2.32.44.66L777.58,946.86Z"/><polyline class="cls-3" points="809.91 994.89 810.67 996.01 812.23 998.33"/><line class="cls-3" x1="867.2" y1="1080" x2="864.89" y2="1076.57"/><line class="cls-3" x1="576.12" y1="29.74" x2="500.82" y2="64.54"/><polyline class="cls-3" points="988.41 49.48 988.75 49.32 990.94 48.31 1062.55 15.22 1064 14.55 1064.74 14.21 1066 13.63"/></svg>